<?xml version="1.0" encoding="UTF-8" standalone="no"?>
<!-- Generator: Adobe Illustrator 13.0.0, SVG Export Plug-In . SVG Version: 6.00 Build 14948)  -->

<svg
   xmlns:dc="http://purl.org/dc/elements/1.1/"
   xmlns:cc="http://creativecommons.org/ns#"
   xmlns:rdf="http://www.w3.org/1999/02/22-rdf-syntax-ns#"
   xmlns:svg="http://www.w3.org/2000/svg"
   xmlns="http://www.w3.org/2000/svg"
   xmlns:sodipodi="http://sodipodi.sourceforge.net/DTD/sodipodi-0.dtd"
   xmlns:inkscape="http://www.inkscape.org/namespaces/inkscape"
   version="1.1"
   id="Layer_1"
   x="0px"
   y="0px"
   width="136.939px"
   height="453.666px"
   viewBox="0 0 136.939 453.666"
   enable-background="new 0 0 136.939 453.666"
   xml:space="preserve"
   inkscape:version="0.48.2 r9819"
   sodipodi:docname="5ml_vector_syringe_0point2ml.svg"><metadata
   id="metadata3068"><rdf:RDF><cc:Work
       rdf:about=""><dc:format>image/svg+xml</dc:format><dc:type
         rdf:resource="http://purl.org/dc/dcmitype/StillImage" /><dc:title></dc:title></cc:Work></rdf:RDF></metadata><defs
   id="defs3066">
	
	
	
		
</defs><sodipodi:namedview
   pagecolor="#ffffff"
   bordercolor="#666666"
   borderopacity="1"
   objecttolerance="10"
   gridtolerance="10"
   guidetolerance="10"
   inkscape:pageopacity="0"
   inkscape:pageshadow="2"
   inkscape:window-width="1600"
   inkscape:window-height="838"
   id="namedview3064"
   showgrid="false"
   inkscape:snap-bbox="true"
   inkscape:bbox-paths="true"
   inkscape:bbox-nodes="true"
   inkscape:zoom="1.36444"
   inkscape:cx="68.469498"
   inkscape:cy="226.83299"
   inkscape:window-x="-8"
   inkscape:window-y="-8"
   inkscape:window-maximized="1"
   inkscape:current-layer="Layer_1" />









<g
   id="g3842"
   inkscape:export-filename="C:\szczykafka.png"
   inkscape:export-xdpi="80.188057"
   inkscape:export-ydpi="80.188057"><polygon
     transform="translate(0,-4.7115672)"
     clip-rule="evenodd"
     points="42.4,399.776 42.4,94.136 94.24,94.136 94.24,399.776 78.041,444.199 107.921,446.864 107.921,453.416 28.576,453.416 28.576,446.864 58.601,444.199 "
     id="polygon2992"
     style="fill:#e7e8e9;fill-rule:evenodd;stroke:#000000;stroke-width:0.5" /><path
     sodipodi:nodetypes="ccccccccc"
     inkscape:connector-curvature="0"
     id="polygon2986"
     d="M 35.669575,64.600026 35.561,59.32 57.736,53.2 59.824,2.008 l 17.137,0 2.016,51.12 22.175,5.904 0.20979,5.141086 z"
     style="fill:#8ed8f8;fill-rule:evenodd" /><polygon
     transform="translate(0,-4.5768667)"
     clip-rule="evenodd"
     points="39.16,87.512 38.944,73.976 35.704,73.976 35.704,68.216 101.152,68.216 101.152,73.976 97.48,73.976 97.48,87.512 101.225,87.512 101.225,93.992 35.561,93.992 35.561,87.512 "
     id="polygon2990"
     style="fill:#808285;fill-rule:evenodd;stroke:#000000;stroke-width:0.21600001" /><line
     clip-rule="evenodd"
     x1="68.32"
     y1="94.136002"
     x2="68.248001"
     y2="445.64001"
     id="line2994"
     style="fill:none;stroke:#000000;stroke-width:0.21600001" /><polygon
     id="polygon2996"
     points="1,368.416 1,362.224   34.625,358.264 34.625,58.528 56.873,52.408 58.889,1 78.041,1 80.057,52.336 102.232,58.528 102.232,358.264 135.856,362.224   135.928,368.416 "
     stroke-width="2.0001"
     stroke="#000000"
     fill="none"
     clip-rule="evenodd"
     fill-rule="evenodd" /><g
     id="g2998">
	
		<line
   id="line3000"
   y2="220.744"
   x2="35.129"
   y1="220.744"
   x1="63.424"
   stroke-width="2.0001"
   stroke="#000000"
   fill="none"
   clip-rule="evenodd"
   fill-rule="evenodd" />
	
		<line
   id="line3002"
   y2="180.64"
   x2="35.129"
   y1="180.64"
   x1="63.353"
   stroke-width="2.0001"
   stroke="#000000"
   fill="none"
   clip-rule="evenodd"
   fill-rule="evenodd" />
	
		<line
   id="line3004"
   y2="260.848"
   x2="35.129"
   y1="260.848"
   x1="63.353"
   stroke-width="2.0001"
   stroke="#000000"
   fill="none"
   clip-rule="evenodd"
   fill-rule="evenodd" />
	
		<line
   id="line3006"
   y2="252.856"
   x2="35.129"
   y1="252.856"
   x1="55.217"
   stroke-width="2.0001"
   stroke="#000000"
   fill="none"
   clip-rule="evenodd"
   fill-rule="evenodd" />
	
		<line
   id="line3008"
   y2="244.864"
   x2="35.129"
   y1="244.864"
   x1="55.217"
   stroke-width="2.0001"
   stroke="#000000"
   fill="none"
   clip-rule="evenodd"
   fill-rule="evenodd" />
	
		<line
   id="line3010"
   y2="236.8"
   x2="35.129"
   y1="236.8"
   x1="55.217"
   stroke-width="2.0001"
   stroke="#000000"
   fill="none"
   clip-rule="evenodd"
   fill-rule="evenodd" />
	
		<line
   id="line3012"
   y2="228.808"
   x2="35.129"
   y1="228.808"
   x1="55.217"
   stroke-width="2.0001"
   stroke="#000000"
   fill="none"
   clip-rule="evenodd"
   fill-rule="evenodd" />
	
		<line
   id="line3014"
   y2="212.752"
   x2="35.129"
   y1="212.752"
   x1="55.217"
   stroke-width="2.0001"
   stroke="#000000"
   fill="none"
   clip-rule="evenodd"
   fill-rule="evenodd" />
	
		<line
   id="line3016"
   y2="204.688"
   x2="35.129"
   y1="204.688"
   x1="55.217"
   stroke-width="2.0001"
   stroke="#000000"
   fill="none"
   clip-rule="evenodd"
   fill-rule="evenodd" />
	
		<line
   id="line3018"
   y2="196.696"
   x2="35.129"
   y1="196.696"
   x1="55.217"
   stroke-width="2.0001"
   stroke="#000000"
   fill="none"
   clip-rule="evenodd"
   fill-rule="evenodd" />
	
		<line
   id="line3020"
   y2="188.704"
   x2="35.129"
   y1="188.704"
   x1="55.217"
   stroke-width="2.0001"
   stroke="#000000"
   fill="none"
   clip-rule="evenodd"
   fill-rule="evenodd" />
	
		<line
   id="line3022"
   y2="172.648"
   x2="35.129"
   y1="172.648"
   x1="55.217"
   stroke-width="2.0001"
   stroke="#000000"
   fill="none"
   clip-rule="evenodd"
   fill-rule="evenodd" />
	
		<line
   id="line3024"
   y2="164.584"
   x2="35.129"
   y1="164.584"
   x1="55.217"
   stroke-width="2.0001"
   stroke="#000000"
   fill="none"
   clip-rule="evenodd"
   fill-rule="evenodd" />
	
		<line
   id="line3026"
   y2="156.592"
   x2="35.129"
   y1="156.592"
   x1="55.217"
   stroke-width="2.0001"
   stroke="#000000"
   fill="none"
   clip-rule="evenodd"
   fill-rule="evenodd" />
	
		<line
   id="line3028"
   y2="148.528"
   x2="35.129"
   y1="148.528"
   x1="55.217"
   stroke-width="2.0001"
   stroke="#000000"
   fill="none"
   clip-rule="evenodd"
   fill-rule="evenodd" />
	
		<line
   id="line3030"
   y2="140.536"
   x2="35.129"
   y1="140.536"
   x1="63.424"
   stroke-width="2.0001"
   stroke="#000000"
   fill="none"
   clip-rule="evenodd"
   fill-rule="evenodd" />
	
		<line
   id="line3032"
   y2="100.36"
   x2="35.129"
   y1="100.36"
   x1="63.353"
   stroke-width="2.0001"
   stroke="#000000"
   fill="none"
   clip-rule="evenodd"
   fill-rule="evenodd" />
	
		<line
   id="line3034"
   y2="132.472"
   x2="35.129"
   y1="132.472"
   x1="55.217"
   stroke-width="2.0001"
   stroke="#000000"
   fill="none"
   clip-rule="evenodd"
   fill-rule="evenodd" />
	
		<line
   id="line3036"
   y2="124.48"
   x2="35.129"
   y1="124.48"
   x1="55.217"
   stroke-width="2.0001"
   stroke="#000000"
   fill="none"
   clip-rule="evenodd"
   fill-rule="evenodd" />
	
		<line
   id="line3038"
   y2="116.416"
   x2="35.129"
   y1="116.416"
   x1="55.217"
   stroke-width="2.0001"
   stroke="#000000"
   fill="none"
   clip-rule="evenodd"
   fill-rule="evenodd" />
	
		<line
   id="line3040"
   y2="108.424"
   x2="35.129"
   y1="108.424"
   x1="55.217"
   stroke-width="2.0001"
   stroke="#000000"
   fill="none"
   clip-rule="evenodd"
   fill-rule="evenodd" />
	
		<line
   id="line3042"
   y2="92.368"
   x2="35.129"
   y1="92.368"
   x1="55.217"
   stroke-width="2.0001"
   stroke="#000000"
   fill="none"
   clip-rule="evenodd"
   fill-rule="evenodd" />
	
		<line
   id="line3044"
   y2="84.304"
   x2="35.129"
   y1="84.304"
   x1="55.217"
   stroke-width="2.0001"
   stroke="#000000"
   fill="none"
   clip-rule="evenodd"
   fill-rule="evenodd" />
	
		<line
   id="line3046"
   y2="76.312"
   x2="35.129"
   y1="76.312"
   x1="55.217"
   stroke-width="2.0001"
   stroke="#000000"
   fill="none"
   clip-rule="evenodd"
   fill-rule="evenodd" />
	
		<line
   id="line3048"
   y2="68.248"
   x2="35.129"
   y1="68.248"
   x1="55.217"
   stroke-width="2.0001"
   stroke="#000000"
   fill="none"
   clip-rule="evenodd"
   fill-rule="evenodd" />
	
		<line
   id="line3050"
   y2="60.256"
   x2="35.129"
   y1="60.256"
   x1="63.424"
   stroke-width="2.0001"
   stroke="#000000"
   fill="none"
   clip-rule="evenodd"
   fill-rule="evenodd" />
</g><text
     id="text3052"
     font-size="23.976"
     font-family="'Arial-BoldMT'"
     transform="matrix(1 0 0 1 76.457 107.6318)">1</text>
<text
     id="text3054"
     font-size="23.976"
     font-family="'Arial-BoldMT'"
     transform="matrix(1 0 0 1 52.3359 317.4404)">mL</text>
<text
     id="text3056"
     font-size="23.976"
     font-family="'Arial-BoldMT'"
     transform="matrix(1 0 0 1 76.457 148.4561)">2</text>
<text
     id="text3058"
     font-size="23.976"
     font-family="'Arial-BoldMT'"
     transform="matrix(1 0 0 1 76.457 189.4238)">3</text>
<text
     id="text3060"
     font-size="23.976"
     font-family="'Arial-BoldMT'"
     transform="matrix(1 0 0 1 76.457 226.8638)">4</text>
<text
     id="text3062"
     font-size="23.976"
     font-family="'Arial-BoldMT'"
     transform="matrix(1 0 0 1 76.457 269.5596)">5</text>
</g>
</svg>